<?xml version="1.0" encoding="UTF-8" standalone="no"?>
<svg
   xmlns:dc="http://purl.org/dc/elements/1.1/"
   xmlns:cc="http://creativecommons.org/ns#"
   xmlns:rdf="http://www.w3.org/1999/02/22-rdf-syntax-ns#"
   xmlns:svg="http://www.w3.org/2000/svg"
   xmlns="http://www.w3.org/2000/svg"
   xmlns:sodipodi="http://sodipodi.sourceforge.net/DTD/sodipodi-0.dtd"
   xmlns:inkscape="http://www.inkscape.org/namespaces/inkscape"
   xml:space="preserve"
   width="42.451mm"
   height="41.2107mm"
   version="1.0"
   style="shape-rendering:geometricPrecision; text-rendering:geometricPrecision; image-rendering:optimizeQuality; fill-rule:evenodd; clip-rule:evenodd"
   viewBox="0 0 2819 2736"
   id="svg4537"
   sodipodi:docname="brimstone_light.svg"
   inkscape:version="0.92.1 r15371"><metadata
     id="metadata4543"><rdf:RDF><cc:Work
         rdf:about=""><dc:format>image/svg+xml</dc:format><dc:type
           rdf:resource="http://purl.org/dc/dcmitype/StillImage" /><dc:title></dc:title></cc:Work></rdf:RDF></metadata><defs
     id="defs4541" /><sodipodi:namedview
     pagecolor="#ffffff"
     bordercolor="#666666"
     borderopacity="1"
     objecttolerance="10"
     gridtolerance="10"
     guidetolerance="10"
     inkscape:pageopacity="0"
     inkscape:pageshadow="2"
     inkscape:window-width="1600"
     inkscape:window-height="849"
     id="namedview4539"
     showgrid="false"
     inkscape:zoom="4.4171375"
     inkscape:cx="80.222363"
     inkscape:cy="77.87849"
     inkscape:window-x="0"
     inkscape:window-y="25"
     inkscape:window-maximized="1"
     inkscape:current-layer="svg4537" /><g
     id="Layer_x0020_1"
     style="fill:#ffffff"><path
       class="fil0"
       d="M2620 2135c0,-122 -44,-218 -109,-285 -76,-77 -180,-118 -283,-118 -274,0 -565,275 -685,403 120,127 411,402 685,402 103,0 207,-41 283,-117 65,-68 109,-163 109,-285zm-1310 -245l0 -664 -495 0c-403,0 -240,166 -403,166 0,-178 0,-355 0,-532 163,0 0,166 403,166l495 0 0 -366 -317 0c-403,0 -240,166 -403,166 0,-177 0,-354 0,-531 163,0 0,166 403,166l317 0 0 -59c0,-402 -166,-239 -166,-402 177,0 354,0 531,0 0,163 -166,0 -166,402l0 59 326 0c402,0 240,-166 402,-166 0,177 0,354 0,531 -162,0 0,-166 -402,-166l-326 0 0 366 504 0c402,0 240,-166 402,-166 0,177 0,354 0,532 -162,0 0,-166 -402,-166l-504 0 0 664c171,-156 444,-357 719,-357 154,0 311,61 425,178 100,102 166,245 166,424 0,178 -66,321 -166,423 -114,117 -271,178 -425,178 -338,0 -673,-303 -819,-454 -146,151 -481,454 -819,454 -153,0 -310,-61 -424,-178 -100,-102 -166,-245 -166,-423 0,-179 66,-322 166,-424 114,-117 271,-178 424,-178 276,0 549,201 720,357zm-1002 -40c-65,67 -109,163 -109,285 0,122 44,217 109,285 75,76 180,117 282,117 275,0 566,-275 686,-402 -120,-128 -411,-403 -686,-403 -102,0 -207,41 -282,118z"
       id="path4534"
       style="fill:#ffffff" /></g></svg>